<?xml version="1.0" encoding="iso-8859-1"?>
<!-- Generator: Adobe Illustrator 19.0.0, SVG Export Plug-In . SVG Version: 6.00 Build 0)  -->
<svg version="1.1" id="Capa_1" xmlns="http://www.w3.org/2000/svg" xmlns:xlink="http://www.w3.org/1999/xlink" x="0px" y="0px"
	 viewBox="0 0 512 512" style="enable-background:new 0 0 512 512;" xml:space="preserve">
<linearGradient id="SVGID_1_" gradientUnits="userSpaceOnUse" x1="-0.0024" y1="258.0191" x2="511.9723" y2="258.0191" gradientTransform="matrix(1 0 0 -1 0.0024 514.0316)">
	<stop  offset="0" style="stop-color:#00F2FE"/>
	<stop  offset="0.021" style="stop-color:#03EFFE"/>
	<stop  offset="0.293" style="stop-color:#24D2FE"/>
	<stop  offset="0.554" style="stop-color:#3CBDFE"/>
	<stop  offset="0.796" style="stop-color:#4AB0FE"/>
	<stop  offset="1" style="stop-color:#4FACFE"/>
</linearGradient>
<path style="fill:url(#SVGID_1_);" d="M244.369,501.011c-16.079,0-31.188-6.269-42.543-17.652L17.524,298.403
	c-23.37-23.37-23.37-61.437,0.025-84.832L201.817,28.648c11.364-11.392,26.472-17.66,42.551-17.66
	c24.726,0,45.985,14.182,55.482,37.011c9.497,22.829,4.569,47.905-12.861,65.442l-81.965,82.556h246.972
	C485.082,195.997,512,222.915,512,256s-26.917,60.003-60.003,60.003c-11.047,0-20.001-8.954-20.001-20.001
	c0-11.047,8.954-20.001,20.001-20.001c11.029,0,20.001-8.972,20.001-20.001c0-11.029-8.972-20.001-20.001-20.001H156.982
	c-8.076,0-15.361-4.857-18.465-12.314c-3.104-7.456-1.419-16.048,4.271-21.779L258.609,85.249
	c8.773-8.827,5.515-18.983,4.307-21.886c-1.208-2.902-6.113-12.374-18.549-12.374c-5.375,0-10.426,2.096-14.224,5.901L45.86,241.832
	c-7.823,7.823-7.823,20.512-0.025,28.31l184.319,184.974c3.788,3.798,8.839,5.894,14.215,5.894c12.436,0,17.341-9.471,18.549-12.374
	s4.466-13.059-4.299-21.878l-115.83-116.666c-5.69-5.73-7.375-14.323-4.271-21.778c3.104-7.456,10.389-12.314,18.465-12.314h195.01
	c11.047,0,20.001,8.954,20.001,20.001c0,11.047-8.954,20.001-20.001,20.001H205.025l81.972,82.565
	c17.422,17.528,22.351,42.604,12.855,65.433C290.354,486.83,269.094,501.011,244.369,501.011z"/>
<g>
</g>
<g>
</g>
<g>
</g>
<g>
</g>
<g>
</g>
<g>
</g>
<g>
</g>
<g>
</g>
<g>
</g>
<g>
</g>
<g>
</g>
<g>
</g>
<g>
</g>
<g>
</g>
<g>
</g>
</svg>
