<svg height="512" viewBox="0 0 60 60" width="512" xmlns="http://www.w3.org/2000/svg"><g id="Page-1" fill="none" fill-rule="evenodd"><g id="070---Laptop-Message-Not-Sent" fill-rule="nonzero"><g id="Icons" transform="translate(1 1)"><path id="Shape" d="m52 58h-46c-3.3137085 0-6-2.6862915-6-6v-3c0-.5522847.44771525-1 1-1h56c.5522847 0 1 .4477153 1 1v3c0 3.3137085-2.6862915 6-6 6z" fill="#7f8e94"/><path id="Shape" d="m57 48h-3c.5522847 0 1 .4477153 1 1v3c0 3.3137085-2.6862915 6-6 6h3c3.3137085 0 6-2.6862915 6-6v-3c0-.5522847-.4477153-1-1-1z" fill="#545c60"/><path id="Shape" d="m39 48v2c0 1.6568542-1.3431458 3-3 3h-14c-1.6568542 0-3-1.3431458-3-3v-2z" fill="#607d8b"/><path id="Shape" d="m54 14v34h-50v-34c0-2.209139 1.790861-4 4-4h2v20c.0032948 1.1032019.8967981 1.9967052 2 2h4v5.01c.0042918.3700243.2125731.7074299.541434.877097s.7245343.1438559 1.028566-.067097l8.43-5.82h20c1.1032019-.0032948 1.9967052-.8967981 2-2v-20h2c2.209139 0 4 1.790861 4 4z" fill="#02a9f4"/><path id="Shape" d="m50 10h-2v.141c1.7632911.4512638 2.9975113 2.0388823 3 3.859v34h3v-34c0-2.209139-1.790861-4-4-4z" fill="#0377bc"/><path id="Shape" d="m14 53h-2c-.5522847 0-1-.4477153-1-1s.4477153-1 1-1h2c.5522847 0 1 .4477153 1 1s-.4477153 1-1 1z" fill="#545c60"/><circle id="Oval" cx="4" cy="52" fill="#ffdc00" r="1"/><circle id="Oval" cx="8" cy="52" fill="#e91e63" r="1"/><path id="Shape" d="m48 2v28c-.0032948 1.1032019-.8967981 1.9967052-2 2h-20l-8.43 5.82c-.3040317.2109529-.6997051.2367641-1.028566.067097s-.5371422-.5070727-.541434-.877097v-5.01h-4c-1.1032019-.0032948-1.9967052-.8967981-2-2v-28c.0032948-1.10320187.8967981-1.9967052 2-2h34c1.1032019.0032948 1.9967052.89679813 2 2z" fill="#ffdc00"/><path id="Shape" d="m46 0h-3c1.1032019.0032948 1.9967052.89679813 2 2v28c-.0032948 1.1032019-.8967981 1.9967052-2 2h3c1.1032019-.0032948 1.9967052-.8967981 2-2v-28c-.0032948-1.10320187-.8967981-1.9967052-2-2z" fill="#fec108"/><path id="Shape" d="m29 4c-6.627417 0-12 5.372583-12 12s5.372583 12 12 12 12-5.372583 12-12-5.372583-12-12-12zm-7.54 14.67c-1.0334636-2.9068659-.3019785-6.1489711 1.8795252-8.3304748s5.4236089-2.91298882 8.3304748-1.8795252c.3264307.11365573.5720697.386349.6511244.72283824.0790547.33648923-.0194554.69003682-.2611244.93716176l-8.94 8.94c-.2471249.241669-.6006725.3401791-.9371618.2611244-.3364892-.0790547-.6091825-.3246937-.7228382-.6511244zm15.32-.8c-.5275478 2.2056835-1.9674635 4.0833179-3.960839 5.164891-1.9933756 1.0815731-4.3524325 1.2651995-6.489161.505109-.3264307-.1136557-.5720697-.386349-.6511244-.7228382-.0790547-.3364893.0194554-.6900369.2611244-.9371618l8.94-8.94c.2471249-.241669.6006725-.3401791.9371618-.2611244.3364892.0790547.6091825.3246937.7228382.6511244.5182269 1.4581075.6016071 3.0353815.24 4.54z" fill="#f44335"/></g><g id="Icons_copy" fill="#000"><path id="Shape" d="m58 48h-2v-33c0-2.7614237-2.2385763-5-5-5h-1v-7c-.0049422-1.6548028-1.3451972-2.9950578-3-3h-34c-1.6548028.0049422-2.9950578 1.3451972-3 3v7h-1c-2.76142375 0-5 2.2385763-5 5v33h-2c-1.10320187.0032948-1.9967052.8967981-2 2v3c.00440864 3.8641657 3.13583434 6.9955914 7 7h46c3.8641657-.0044086 6.9955914-3.1358343 7-7v-3c-.0032948-1.1032019-.8967981-1.9967052-2-2zm-46-45c0-.55228475.4477153-1 1-1h34c.5522847 0 1 .44771525 1 1v28c0 .5522847-.4477153 1-1 1h-24c-.5522847 0-1 .4477153-1 1s.4477153 1 1 1h.8l-5.8 4.01v-4.01h1c.5522847 0 1-.4477153 1-1s-.4477153-1-1-1h-6c-.5522847 0-1-.4477153-1-1zm-6 12c.0049422-1.6548028 1.3451972-2.9950578 3-3h1v19c.0049422 1.6548028 1.3451972 2.9950578 3 3h3v4.01c-.0012483.7408023.4117572 1.4201383 1.07 1.76.2872244.149729.6060947.2285894.93.23.4080658.0006526.8063159-.1251105 1.14-.36l8.17-5.64h19.69c1.6548028-.0049422 2.9950578-1.3451972 3-3v-19h1c1.6548028.0049422 2.9950578 1.3451972 3 3v33h-48zm33 35v1c-.0032948 1.1032019-.8967981 1.9967052-2 2h-14c-1.1032019-.0032948-1.9967052-.8967981-2-2v-1zm19 3c0 2.7614237-2.2385763 5-5 5h-46c-2.76142375 0-5-2.2385763-5-5v-3h17v1c0 2.209139 1.790861 4 4 4h14c2.209139 0 4-1.790861 4-4v-1h17z"/><path id="Shape" d="m30 4c-7.1797017 0-13 5.82029825-13 13 0 7.1797017 5.8202983 13 13 13s13-5.8202983 13-13c-.0066157-7.17695964-5.8230404-12.99338427-13-13zm0 24c-6.0751322 0-11-4.9248678-11-11s4.9248678-11 11-11 11 4.9248678 11 11c-.0038613 6.0735321-4.9264679 10.9961387-11 11z"/><path id="Shape" d="m38.48 13.99c-.2301747-.6539941-.7826357-1.1421274-1.46-1.29-.6685702-.1525045-1.3684507.0517849-1.85.54l-8.93 8.93c-.4866249.4872955-.6894258 1.190061-.5372415 1.8617012.1521844.6716403.6380996 1.2183523 1.2872415 1.4482988.9667356.3421964 1.9844893.518021 3.01.52 4.1638874.0013459 7.7859455-2.8516451 8.76-6.9.3996212-1.6948523.3024099-3.4689576-.28-5.11zm-1.67 4.66c-.4596324 1.9335503-1.7237135 3.5784861-3.4737723 4.5203845-1.7500588.9418985-3.8192366 1.0909547-5.6862277.4096155l8.94-8.91c.4581222 1.2771838.534565 2.6601048.22 3.98z"/><path id="Shape" d="m34.3 9.98c-.1478726-.67736433-.6360059-1.22982526-1.29-1.46-3.2709848-1.15963714-6.9172793-.33525238-9.3712658 2.1187342-2.4539866 2.4539865-3.2783713 6.100281-2.1187342 9.3712658.2301747.6539941.7826357 1.1421274 1.46 1.29.1446999.0308853.2920596.0476307.44.05.5299564-.0003544 1.037721-.2128233 1.41-.59l8.93-8.93c.4870219-.4822607.691116-1.181472.54-1.85zm-10.89 9.35c-.6709602-1.8660486-.515558-3.9295232.4273167-5.6740323.9428748-1.7445092 2.5840017-3.0049772 4.5126833-3.4659677.5381076-.1229187 1.0880422-.1866306 1.64-.19.8042777.0012428 1.6024297.1399048 2.36.41z"/></g></g></g></svg>