<svg height="512" viewBox="0 0 512 512" width="512" xmlns="http://www.w3.org/2000/svg"><g id="User_Male_Add" data-name="User Male Add"><g id="Filled"><path d="m240 408a71.991 71.991 0 0 0 71.927-69.1l-2.789-.507a16 16 0 0 1 -13.138-15.746v-50.647h-112v50.647a16 16 0 0 1 -13.138 15.742l-2.789.507a71.991 71.991 0 0 0 71.927 69.104z" fill="#fac7b7"/><path d="m412.88 357.251-100.953-18.351a71.991 71.991 0 0 1 -71.927 69.1 71.991 71.991 0 0 1 -71.927-69.1l-100.953 18.351a72 72 0 0 0 -59.12 70.838v83.911h464v-83.911a72 72 0 0 0 -59.12-70.838z" fill="#5fc4b8"/><path d="m412.88 357.251-14.845-2.7c-62.561 85.73-163.781 141.449-278.035 141.449a343.421 343.421 0 0 1 -112-18.673v34.673h464v-83.911a72 72 0 0 0 -59.12-70.838z" fill="#50b5a6"/><path d="m168 104 28.031 18.687a79.265 79.265 0 0 0 87.938 0l28.031-18.687s34.581 5.769 45.036 31.978c6.215-67.727-47.146-127.978-117.036-127.978-69.89 0-123.251 60.251-117.036 127.978 10.455-26.209 45.036-31.978 45.036-31.978z" fill="#525252"/><path d="m351.226 168 3.878-18.929a119.819 119.819 0 0 0 1.932-13.093c-10.455-26.209-45.036-31.978-45.036-31.978l-28.031 18.687a79.265 79.265 0 0 1 -87.938 0l-28.031-18.687s-34.581 5.769-45.036 31.978a119.819 119.819 0 0 0 1.932 13.093l3.878 18.929a19.342 19.342 0 0 0 -18.765 24.034l4.56 18.24a28.682 28.682 0 0 0 27.825 21.726 102.175 102.175 0 0 0 97.606 72 102.175 102.175 0 0 0 97.606-72 28.682 28.682 0 0 0 27.825-21.726l4.56-18.24a19.342 19.342 0 0 0 -18.765-24.034z" fill="#ffe7de"/><circle cx="200" cy="48" fill="#848484" r="16"/><circle cx="240" cy="64" fill="#848484" r="12"/><circle cx="64" cy="388" fill="#97e5de" r="16"/><circle cx="104" cy="404" fill="#97e5de" r="12"/><circle cx="176" cy="152" fill="#fff5f2" r="16"/><circle cx="216" cy="168" fill="#fff5f2" r="12"/><path d="m178.151 283.124a101.909 101.909 0 0 0 61.849 20.876 102.175 102.175 0 0 0 97.606-72 28.682 28.682 0 0 0 27.825-21.726l4.56-18.24a19.342 19.342 0 0 0 -18.765-24.034l1.639-8h-.865c0-14.365-2.872-25.857-7.461-35.062a220.3 220.3 0 0 1 -166.388 158.186z" fill="#f9d8cd"/><path d="m304.892 27.5a136.124 136.124 0 0 1 -114.1 91.693l5.237 3.491a79.265 79.265 0 0 0 87.938 0l28.033-18.684s34.581 5.769 45.036 31.978a117.537 117.537 0 0 0 -52.144-108.478z" fill="#3f3f3f"/><circle cx="392" cy="392" fill="#ffd740" r="112"/><path d="m456 376h-48v-48h-32v48h-48v32h48v48h32v-48h48z" fill="#0277bd"/><path d="m474.571 316.336a119.951 119.951 0 0 1 -174.571 139.547 112 112 0 1 0 174.571-139.547z" fill="#ffc400"/></g><g id="Outline"><path d="m72 440a8 8 0 0 0 -8 8v56a8 8 0 0 0 16 0v-56a8 8 0 0 0 -8-8z"/><path d="m240 400a64 64 0 0 1 -63.357-54.97 23.985 23.985 0 0 0 15.357-22.383v-21.664a110.167 110.167 0 0 0 151.52-61.463 36.628 36.628 0 0 0 29.669-27.31l4.561-18.24a27.569 27.569 0 0 0 .83-6.67 27.4 27.4 0 0 0 -17.891-25.62l2.25-11a128.016 128.016 0 0 0 2.037-13.768v-.025c.361-3.884.552-7.773.552-11.647a123.753 123.753 0 0 0 -9.671-48.08 125.82 125.82 0 0 0 -26.587-39.87 125.784 125.784 0 0 0 -136.61-28.09 8 8 0 0 0 3.03 15.41 8.028 8.028 0 0 0 3.01-.59l.07-.04a109.677 109.677 0 0 1 149.973 88.12c-15.312-12.47-34.305-15.808-35.429-16l-3.12-.52-30.662 20.445a71.284 71.284 0 0 1 -79.064 0l-30.662-20.436-3.12.52c-1.124.187-20.121 3.525-35.434 16a108.579 108.579 0 0 1 20.908-51.989 8.007 8.007 0 0 0 -1.64-11.19 7.986 7.986 0 0 0 -11.19 1.63 125.723 125.723 0 0 0 -18.31 34.86 124.034 124.034 0 0 0 -6.55 39.82q0 5.736.538 11.5l.009.1a128.162 128.162 0 0 0 2.043 13.844l2.25 11a27.279 27.279 0 0 0 -17.06 32.29l4.56 18.24a36.616 36.616 0 0 0 29.67 27.31 110.091 110.091 0 0 0 39.52 51.964v31.159a8 8 0 0 1 -6.569 7.871l-103.742 18.862a79.962 79.962 0 0 0 -65.689 78.709v75.911a8 8 0 0 0 16 0v-75.911a63.969 63.969 0 0 1 52.551-62.967l92.417-16.8a79.976 79.976 0 0 0 79.032 67.678 8 8 0 0 0 0-16zm-89.96-170.36-1.73-5.61-5.92-.03a20.637 20.637 0 0 1 -20.06-15.67l-4.56-18.24a11.242 11.242 0 0 1 2.93-10.72 11.218 11.218 0 0 1 8.07-3.37h9.81l-5.85-28.53q-1.037-5.085-1.6-10.222c7.65-16.344 27.716-22.806 35.26-24.7l25.2 16.8a87.278 87.278 0 0 0 96.816 0l25.2-16.8c7.56 1.9 27.606 8.364 35.257 24.694-.375 3.422-.9 6.84-1.593 10.232l-5.84 28.47-.01.06h9.809a11.219 11.219 0 0 1 8.071 3.37 11.253 11.253 0 0 1 2.929 10.73l-4.559 18.23a20.64 20.64 0 0 1 -20.07 15.666h-5.86l-1.78 5.64a93.653 93.653 0 0 1 -89.94 66.36h-.03a93.655 93.655 0 0 1 -89.95-66.36z"/><path d="m168.07 40.56a7.909 7.909 0 0 0 4.82-1.62l.08-.06a8 8 0 0 0 -4.91-14.32 8 8 0 0 0 .01 16z"/><path d="m288 392a104 104 0 0 1 174.87-76.12 7.934 7.934 0 0 0 5.449 2.15 8.024 8.024 0 0 0 5.851-2.55 8.008 8.008 0 0 0 -.4-11.31 119.538 119.538 0 0 0 -81.75-32.17h-.02a119.9 119.9 0 0 0 -120 120 119.355 119.355 0 0 0 14.66 57.52 8 8 0 1 0 14.04-7.68 104.1 104.1 0 0 1 -12.7-49.84z"/><path d="m508.3 362.32a7.994 7.994 0 0 0 -7.75-6.02 7.859 7.859 0 0 0 -1.981.25 8 8 0 0 0 -5.789 9.66l.01.06a104.039 104.039 0 0 1 -150.63 117.03 8.1 8.1 0 0 0 -3.841-.98 8 8 0 0 0 -3.849 15.02 119.684 119.684 0 0 0 57.52 14.66h.01a120.1 120.1 0 0 0 116.3-149.68z"/><path d="m318.37 465.45a8.143 8.143 0 1 0 .09.09z"/><path d="m481.56 339.09a8.05 8.05 0 0 0 6.79 3.76 8.009 8.009 0 0 0 6.87-12.09 8.054 8.054 0 0 0 -6.89-3.92 8 8 0 0 0 -6.87 12.1z"/><path d="m416 464v-48h48v-48h-48v-48h-48v48h-48v48h48v48zm-80-64v-16h48v-48h16v48h48v16h-48v48h-16v-48z"/></g></g></svg>