<?xml version="1.0" encoding="iso-8859-1"?>
<!-- Generator: Adobe Illustrator 19.0.0, SVG Export Plug-In . SVG Version: 6.00 Build 0)  -->
<svg version="1.1" id="Capa_1" xmlns="http://www.w3.org/2000/svg" xmlns:xlink="http://www.w3.org/1999/xlink" x="0px" y="0px"
	 viewBox="0 0 512 512" style="enable-background:new 0 0 512 512;" xml:space="preserve">
<path style="fill:#5D9CEC;" d="M385.942,347.13H126.058c-27.616,0-49.976,22.348-49.976,49.975v107.397h359.835V397.105
	C435.917,369.478,413.567,347.13,385.942,347.13z"/>
<path style="fill:#4A89DC;" d="M385.942,347.13h-29.989c27.627,0,49.976,22.348,49.976,49.975v107.397h29.989V397.105
	C435.917,369.478,413.567,347.13,385.942,347.13z"/>
<polygon style="fill:#F6BB42;" points="266.001,397.105 275.996,504.503 236.015,504.503 246.01,397.105 "/>
<polygon style="fill:#FFCE54;" points="295.986,367.12 266.001,397.105 246.01,397.105 216.025,367.12 256.006,357.125 "/>
<path style="fill:#E6E9ED;" d="M256.006,327.14c-26.118,0-50.276-8.347-69.966-22.51v42.5l29.985,19.99l39.98-9.995l39.981,9.995
	l29.985-19.99v-42.509C306.27,318.793,282.113,327.14,256.006,327.14z"/>
<rect x="335.965" y="397.605" style="fill:#FFCE54;" width="29.985" height="19.99"/>
<polygon style="fill:#E6E9ED;" points="395.937,417.596 395.937,467.572 305.981,467.572 305.981,417.596 335.966,417.596 
	365.952,417.596 "/>
<path style="fill:#965353;" d="M335.966,57.801c0,0,61.759,0.851,39.949,109.906l-21.809-43.619c0,0-68.425,21.819-109.067,21.819
	c-40.64,0-76.343-21.819-76.343-21.819l-32.694,43.589l-0.029,0.04C114.155-6.788,248.708,7.796,335.955,7.796
	C335.955,51.424,335.966,57.801,335.966,57.801z"/>
<path style="fill:#864B4C;" d="M335.966,57.801c0,0-0.012-6.377-0.012-50.004c-16.447,0-29.987-0.257-29.987-0.257
	c0,43.628,0.01,18.374,0.01,50.261s39.964,15.396,39.964,68.771c2.265-0.689,8.164-2.483,8.164-2.483l21.809,43.619
	C397.725,58.651,335.966,57.801,335.966,57.801z"/>
<path style="fill:#FFDECF;" d="M256.006,327.14c-26.118,0-50.276-8.347-69.966-22.51c-30.266-21.779-49.975-57.302-49.975-97.431
	v-39.481l-0.061-0.04l32.694-43.589c0,0,35.702,21.819,76.343,21.819c40.641,0,109.067-21.819,109.067-21.819l21.809,43.619v0.011
	h0.031v39.481c0,40.129-19.711,75.652-49.975,97.422C306.27,318.793,282.113,327.14,256.006,327.14z"/>
<path style="fill:#FFCDBE;" d="M375.916,167.718v-0.011l-21.809-43.619c0,0-3.023,0.964-8.164,2.483l0.016,41.146v39.481
	c0,40.129-19.711,75.652-49.975,97.422c-15.869,11.416-34.632,19.043-54.974,21.581c4.913,0.613,9.916,0.939,14.997,0.939
	c26.107,0,50.265-8.347,69.967-22.519c30.264-21.769,49.975-57.292,49.975-97.422v-39.481L375.916,167.718L375.916,167.718z"/>
<path d="M385.939,339.634l-52.477-0.001v-31.317c30.363-23.315,49.975-59.967,49.975-101.118v-38.896
	c8.891-45.142,5.023-78.404-11.514-98.861c-9.567-11.837-21.106-16.352-28.469-18.075c-0.002-6.518-0.004-19.262-0.004-43.571
	c0-4.14-3.355-7.496-7.496-7.496c-6.046,0-12.242-0.069-18.804-0.143C310.338,0.079,303.291,0,296.156,0
	C241.896,0,187.181,5.103,154.49,42.135c-24.623,27.892-33.114,69.275-25.958,126.512c0.006,0.051,0.023,0.098,0.03,0.147v38.402
	c0,41.153,19.613,77.805,49.977,101.119v31.318H126.06c-31.69,0-57.472,25.781-57.472,57.472c0,0.02,0.003,0.038,0.003,0.058v39.922
	c0,4.138,3.358,7.496,7.496,7.496c4.128,0,7.496-3.358,7.496-7.496v-39.98c0-0.013-0.002-0.025-0.002-0.038
	c0.021-23.406,19.068-42.441,42.478-42.441h57.707l27.475,18.317l26.973,26.973l-9.036,97.088h-75.628V447.58
	c0-4.14-3.356-7.496-7.496-7.496s-7.496,3.356-7.496,7.496v49.425H83.585v-29.933c0-4.138-3.368-7.496-7.496-7.496
	c-4.138,0-7.496,3.358-7.496,7.496v37.372c0,0.02-0.003,0.039-0.003,0.058c0,3.397,2.261,6.263,5.359,7.184
	c0.679,0.203,1.395,0.315,2.14,0.315c0.013,0,0.025-0.002,0.039-0.002h159.83c0.021,0,0.042,0.003,0.062,0.003
	c0.021,0,0.041-0.003,0.062-0.003h39.881c0.007,0,0.014,0.001,0.02,0.001c0.007,0,0.014-0.001,0.021-0.001h159.873
	c0.014,0,0.026,0.002,0.039,0.002c4.141,0,7.496-3.355,7.496-7.496V397.105C443.411,365.415,417.63,339.634,385.939,339.634z
	 M428.418,397.105v99.899H282.822l-9.037-97.088l26.971-26.972l27.478-18.319l57.704,0.001
	C409.362,354.626,428.418,373.682,428.418,397.105z M249.111,389.609l-18.429-18.429l25.319-6.329l25.318,6.329l-18.427,18.429
	H249.111z M318.47,343.117l-23.886,15.925l-31.087-7.771v-16.862c19.882-1.159,38.551-6.896,54.973-16.171V343.117z M165.731,52.058
	c28.756-32.576,79.679-37.066,130.425-37.066c7.052,0,14.055,0.078,20.827,0.154c3.937,0.044,7.744,0.087,11.475,0.114
	c0.001,36.912,0.006,42.544,0.006,42.544c0.004,4.098,3.232,7.431,7.329,7.487c0.574,0.018,14.163,0.59,24.696,13.853
	c10.653,13.415,14.573,35.362,11.606,64.17l-11.291-22.582c-1.651-3.303-5.464-4.91-8.982-3.789
	c-0.673,0.215-67.789,21.461-106.786,21.461c-37.947,0-72.104-20.512-72.438-20.716c-3.297-2.017-7.587-1.192-9.906,1.898
	l-21.104,28.14C138.866,104.889,146.82,73.48,165.731,52.058z M143.556,207.197V170.1l27.214-36.288
	c12.214,6.373,41.496,19.588,74.269,19.588c34.587,0,87.258-14.888,105.197-20.279l18.21,36.418v37.66
	c0,61.495-49.624,111.61-110.929,112.425c-0.49-0.101-0.997-0.153-1.516-0.153s-1.025,0.053-1.516,0.153
	C193.178,318.808,143.556,268.692,143.556,207.197z M248.504,334.408v16.862l-31.086,7.771l-23.886-15.925v-24.879
	C209.953,327.513,228.623,333.25,248.504,334.408z M252.837,404.602h6.328l8.6,92.403h-23.528L252.837,404.602z"/>
<path d="M373.443,397.605c0-4.141-3.355-7.496-7.496-7.496h-29.985c-4.141,0-7.496,3.355-7.496,7.496v12.494h-22.489
	c-4.141,0-7.496,3.355-7.496,7.496v49.976c0,4.141,3.355,7.496,7.496,7.496h89.956c4.141,0,7.496-3.355,7.496-7.496v-49.976
	c0-4.141-3.355-7.496-7.496-7.496h-22.489V397.605z M343.458,405.101h14.993v4.998h-14.993V405.101z M388.436,460.074h-74.963
	v-34.983h22.489h29.985h22.489V460.074z"/>
<g>
</g>
<g>
</g>
<g>
</g>
<g>
</g>
<g>
</g>
<g>
</g>
<g>
</g>
<g>
</g>
<g>
</g>
<g>
</g>
<g>
</g>
<g>
</g>
<g>
</g>
<g>
</g>
<g>
</g>
</svg>
