<svg id="Layer_5" enable-background="new 0 0 64 64" height="512" viewBox="0 0 64 64" width="512" xmlns="http://www.w3.org/2000/svg"><g><g><g><path d="m25 54v2c0 3.31-2.69 6-6 6-1.66 0-3.16-.67-4.24-1.76-1.09-1.08-1.76-2.58-1.76-4.24v-2z" fill="#aab2bd"/></g><g><path d="m27 46c1.1 0 2 .9 2 2 0 .55-.22 1.05-.59 1.41-.36.37-.86.59-1.41.59h-2-12-2c-1.1 0-2-.9-2-2 0-.55.22-1.05.59-1.41.36-.37.86-.59 1.41-.59h8 3z" fill="#ccd1d9"/></g><g><path d="m25 50c1.1 0 2 .9 2 2 0 .55-.22 1.05-.59 1.41-.36.37-.86.59-1.41.59h-12c-1.1 0-2-.9-2-2 0-.55.22-1.05.59-1.41.36-.37.86-.59 1.41-.59z" fill="#ccd1d9"/></g><g><path d="m9 36c-2.76 0-5-2.24-5-5 0-.94.26-1.81.7-2.56-1.61-.83-2.7-2.51-2.7-4.44 0-1.94 1.12-3.6 2.73-4.43-.45-.75-.73-1.63-.73-2.57 0-2.76 2.24-5 5-5 .14 0 .27.03.4.04.76-1.79 2.53-3.04 4.6-3.04 2.76 0 5 2.24 5 5v10 22h-8-2c-.55 0-1.05-.22-1.41-.59-.37-.36-.59-.86-.59-1.41 0-1.1.9-2 2-2h2v-1s-2-3-2-5z" fill="#f0d0b4"/></g><g><path d="m21.29 9.15c-1.21-.16-2.29.77-2.29 1.99v2.86 10 22h3 5 2c1.1 0 2-.9 2-2 0-.55-.22-1.05-.59-1.41-.36-.37-.86-.59-1.41-.59h-2v-1c2.27-1.21 4.23-2.93 5.74-5 .89-1.22 1.63-2.56 2.17-4 .48-1.27.81-2.61.97-4 .08-.65.12-1.32.12-2 0-8.61-6.4-15.73-14.71-16.85z" fill="#ffeaa7"/></g><g><path d="m29.41 22.59c.37.36.59.86.59 1.41s-.22 1.05-.59 1.41c-.36.37-.86.59-1.41.59-.91 0-1.79-.26-2.55-.73l.27-1.6c.16-.96 1-1.67 1.97-1.67h.31c.55 0 1.05.22 1.41.59z" fill="#fcd770"/></g><g><path d="m55 48c3.87 0 7 3.13 7 7s-3.13 7-7 7-7-3.13-7-7 3.13-7 7-7z" fill="#ff826e"/></g><g><path d="m55 2c3.87 0 7 3.13 7 7s-3.13 7-7 7-7-3.13-7-7 3.13-7 7-7z" fill="#ff826e"/></g><g><path d="m55 25c3.87 0 7 3.13 7 7s-3.13 7-7 7-7-3.13-7-7 3.13-7 7-7z" fill="#ff826e"/></g><g><circle cx="55" cy="9" fill="#fc6e51" r="2"/></g><g><circle cx="48" cy="20" fill="#fc6e51" r="2"/></g><g><circle cx="48" cy="44" fill="#fc6e51" r="2"/></g><g><circle cx="55" cy="55" fill="#fc6e51" r="2"/></g><g><circle cx="55" cy="32" fill="#fc6e51" r="2"/></g></g><g><path d="m8 18h2c0-.552.448-1 1-1v-2c-1.654 0-3 1.346-3 3z"/><path d="m17 20c0-1.654-1.346-3-3-3v2c.552 0 1 .448 1 1z"/><path d="m7 24v2c1.654 0 3-1.346 3-3h-2c0 .552-.448 1-1 1z"/><path d="m55 58c1.654 0 3-1.346 3-3s-1.346-3-3-3-3 1.346-3 3 1.346 3 3 3zm0-4c.552 0 1 .448 1 1s-.448 1-1 1-1-.448-1-1 .448-1 1-1z"/><path d="m55 35c1.654 0 3-1.346 3-3s-1.346-3-3-3-3 1.346-3 3 1.346 3 3 3zm0-4c.552 0 1 .448 1 1s-.448 1-1 1-1-.448-1-1 .448-1 1-1z"/><path d="m55 12c1.654 0 3-1.346 3-3s-1.346-3-3-3-3 1.346-3 3 1.346 3 3 3zm0-4c.552 0 1 .448 1 1s-.448 1-1 1-1-.448-1-1 .448-1 1-1z"/><path d="m47.069 33c.495 3.94 3.859 7 7.931 7 4.411 0 8-3.589 8-8s-3.589-8-8-8c-4.072 0-7.436 3.06-7.931 7h-10.784c.189-.655.342-1.322.457-2h3.258c1.654 0 3-1.346 3-3v-4c0-.552.448-1 1-1h1.184c.414 1.161 1.514 2 2.816 2 1.654 0 3-1.346 3-3s-1.346-3-3-3c-1.302 0-2.402.839-2.816 2h-1.184c-1.654 0-3 1.346-3 3v4c0 .552-.448 1-1 1h-3.031c.018-.332.031-.665.031-1 0-3.628-1.109-7.033-3-9.893v-5.107c0-.552.448-1 1-1h12.069c.495 3.94 3.859 7 7.931 7 4.411 0 8-3.589 8-8s-3.589-8-8-8c-4.072 0-7.436 3.06-7.931 7h-12.069c-1.654 0-3 1.346-3 3v2.596c-2.739-2.876-6.411-4.873-10.576-5.434-.861-.116-1.741.146-2.399.72-.306.267-.544.594-.717.951-1.092-1.128-2.618-1.833-4.308-1.833-2.165 0-4.136 1.158-5.198 3.003-3.217.105-5.802 2.755-5.802 5.997 0 .748.147 1.494.433 2.2-1.521 1.121-2.433 2.886-2.433 4.8 0 1.968.956 3.712 2.424 4.806-.274.696-.424 1.438-.424 2.194 0 3.003 2.22 5.491 5.104 5.926.294 1.546 1.197 3.215 1.715 4.074h-.819c-1.654 0-3 1.346-3 3 0 1.383.945 2.539 2.22 2.884-.139.346-.22.721-.22 1.116 0 1.383.945 2.539 2.22 2.884-.139.346-.22.721-.22 1.116 0 1.302.839 2.402 2 2.816v1.184c0 3.859 3.141 7 7 7s7-3.141 7-7v-1.184c1.161-.414 2-1.514 2-2.816 0-.395-.081-.77-.22-1.116 1.275-.346 2.22-1.501 2.22-2.884 0-.395-.081-.77-.22-1.116 1.275-.346 2.22-1.501 2.22-2.884 0-1.654-1.346-3-3-3h7c.552 0 1 .448 1 1v11c0 1.654 1.346 3 3 3h7.069c.495 3.94 3.859 7 7.931 7 4.411 0 8-3.589 8-8s-3.589-8-8-8c-4.072 0-7.436 3.06-7.931 7h-7.069c-.552 0-1-.448-1-1v-11c0-1.654-1.346-3-3-3h-4.556c.651-.623 1.249-1.293 1.796-2h6.76c.552 0 1 .448 1 1v4c0 1.654 1.346 3 3 3h1.184c.414 1.161 1.514 2 2.816 2 1.654 0 3-1.346 3-3s-1.346-3-3-3c-1.302 0-2.402.839-2.816 2h-1.184c-.552 0-1-.448-1-1v-4c0-1.654-1.346-3-3-3h-5.419c.373-.645.705-1.312.996-2zm7.931-7c3.309 0 6 2.691 6 6s-2.691 6-6 6-6-2.691-6-6 2.691-6 6-6zm-7-7c.552 0 1 .448 1 1s-.448 1-1 1-1-.448-1-1 .448-1 1-1zm7-16c3.309 0 6 2.691 6 6s-2.691 6-6 6-6-2.691-6-6 2.691-6 6-6zm0 46c3.309 0 6 2.691 6 6s-2.691 6-6 6-6-2.691-6-6 2.691-6 6-6zm-7-6c.552 0 1 .448 1 1s-.448 1-1 1-1-.448-1-1 .448-1 1-1zm-28 2v-20.465l1.873-1.248 2.006 2.006c.154.154.316.299.486.434l-3.212 19.273zm-11-2h3v-2.305l-.168-.252c-.412-.618-1.343-2.227-1.69-3.555 2.764-.535 4.858-2.97 4.858-5.888h-2c0 2.206-1.794 4-4 4s-4-1.794-4-4c0-.436.079-.863.215-1.271.564.176 1.164.271 1.785.271 3.309 0 6-2.691 6-6h-2c0 2.206-1.794 4-4 4s-4-1.794-4-4c0-1.492.838-2.85 2.188-3.542l.952-.489-.553-.917c-.39-.646-.587-1.336-.587-2.052 0-2.206 1.794-4 4-4 .037.001.074.008.11.013.069.01.14.019.211.024l.717.057.282-.661c.631-1.478 2.076-2.433 3.68-2.433 2.206 0 4 1.794 4 4v31h-7-2c-.552 0-1-.448-1-1s.448-1 1-1zm10 18c-2.757 0-5-2.243-5-5v-1h10v1c0 2.757-2.243 5-5 5zm6-8h-12c-.552 0-1-.448-1-1s.448-1 1-1h12c.552 0 1 .448 1 1s-.448 1-1 1zm2-4h-2-12-2c-.552 0-1-.448-1-1s.448-1 1-1h16c.552 0 1 .448 1 1s-.448 1-1 1zm-.472-8.884-.528.282v2.602h3c.552 0 1 .448 1 1s-.448 1-1 1h-2-3.82l3.047-18.279c.571.182 1.169.279 1.773.279 1.654 0 3-1.346 3-3s-1.346-3-3-3h-.306c-1.42 0-2.628.979-2.929 2.351l-2.639-2.638-2.126 1.418v-10.993c0-.291.121-.558.341-.75.226-.198.519-.285.815-.243 7.893 1.062 13.844 7.878 13.844 15.855 0 5.914-3.246 11.323-8.472 14.116zm.034-15.399.146-.882c.08-.483.495-.835.986-.835h.306c.552 0 1 .448 1 1s-.448 1-1 1c-.495 0-.984-.099-1.438-.283z"/></g></g></svg>